<svg width="1437" height="665" viewBox="0 0 911 421" fill="none" xmlns="http://www.w3.org/2000/svg">
<path d="M51.75 82.3438C51.75 74.4688 53.25 67.0625 56.25 60.125C59.25 53 63.375 46.9062 68.625 41.8438C73.875 36.5937 79.9688 32.4688 86.9062 29.4688C94.0312 26.2813 101.531 24.6875 109.406 24.6875H328.219C336.094 24.6875 343.5 26.2813 350.438 29.4688C357.562 32.4688 363.75 36.5937 369 41.8438C374.25 46.9062 378.375 53 381.375 60.125C384.375 67.0625 385.875 74.4688 385.875 82.3438V134.375H328.219V82.3438H109.406V370.344H328.219V318.594H385.875V370.344C385.875 378.219 384.375 385.719 381.375 392.844C378.375 399.781 374.25 405.875 369 411.125C363.75 416.375 357.562 420.5 350.438 423.5C343.5 426.5 336.094 428 328.219 428H109.406C101.531 428 94.0312 426.5 86.9062 423.5C79.9688 420.5 73.875 416.375 68.625 411.125C63.375 405.875 59.25 399.781 56.25 392.844C53.25 385.719 51.75 378.219 51.75 370.344V82.3438Z" fill="black"/>
<rect x="180.243" y="238.134" width="90.4983" height="27.8664" fill="#2D2497"/>
<circle cx="180.176" cy="239.824" r="26.1755" fill="#2D2497"/>
<circle cx="209.868" cy="220.954" r="33.9538" fill="#2D2497"/>
<circle cx="245.648" cy="217.369" r="17.3827" fill="#2D2497"/>
<circle cx="242.885" cy="237.235" r="17.3827" fill="#2D2497"/>
<circle cx="269.862" cy="237.255" r="28.7457" fill="#2D2497"/>
</svg>
